<mxfile host="app.diagrams.net" agent="Mozilla/5.0 (Windows NT 10.0; Win64; x64) AppleWebKit/537.36 (KHTML, like Gecko) Chrome/134.0.0.0 Safari/537.36" version="26.1.2">
  <diagram name="Page-1" id="8RiJp-hJh4GdUlBX8bcH">
    <mxGraphModel dx="2336" dy="813" grid="1" gridSize="10" guides="1" tooltips="1" connect="1" arrows="1" fold="1" page="1" pageScale="1" pageWidth="827" pageHeight="1169" math="0" shadow="0">
      <root>
        <mxCell id="0" />
        <mxCell id="1" parent="0" />
        <mxCell id="1Ee29xCgFdi1v9QcK5ku-13" style="edgeStyle=orthogonalEdgeStyle;rounded=0;orthogonalLoop=1;jettySize=auto;html=1;entryX=-0.011;entryY=0.031;entryDx=0;entryDy=0;entryPerimeter=0;" edge="1" parent="1" source="1Ee29xCgFdi1v9QcK5ku-1" target="1Ee29xCgFdi1v9QcK5ku-12">
          <mxGeometry relative="1" as="geometry" />
        </mxCell>
        <mxCell id="1Ee29xCgFdi1v9QcK5ku-14" value="&lt;font style=&quot;font-size: 32px;&quot;&gt;Has&lt;/font&gt;" style="edgeLabel;html=1;align=center;verticalAlign=middle;resizable=0;points=[];" vertex="1" connectable="0" parent="1Ee29xCgFdi1v9QcK5ku-13">
          <mxGeometry x="-0.277" y="1" relative="1" as="geometry">
            <mxPoint as="offset" />
          </mxGeometry>
        </mxCell>
        <mxCell id="1Ee29xCgFdi1v9QcK5ku-36" value="1" style="edgeLabel;html=1;align=center;verticalAlign=middle;resizable=0;points=[];" vertex="1" connectable="0" parent="1Ee29xCgFdi1v9QcK5ku-13">
          <mxGeometry x="-0.8254" relative="1" as="geometry">
            <mxPoint as="offset" />
          </mxGeometry>
        </mxCell>
        <mxCell id="1Ee29xCgFdi1v9QcK5ku-37" value="1..*" style="edgeLabel;html=1;align=center;verticalAlign=middle;resizable=0;points=[];" vertex="1" connectable="0" parent="1Ee29xCgFdi1v9QcK5ku-13">
          <mxGeometry x="0.8151" y="1" relative="1" as="geometry">
            <mxPoint as="offset" />
          </mxGeometry>
        </mxCell>
        <mxCell id="1Ee29xCgFdi1v9QcK5ku-1" value="Bruger" style="swimlane;fontStyle=1;align=center;verticalAlign=top;childLayout=stackLayout;horizontal=1;startSize=26;horizontalStack=0;resizeParent=1;resizeParentMax=0;resizeLast=0;collapsible=1;marginBottom=0;whiteSpace=wrap;html=1;" vertex="1" parent="1">
          <mxGeometry x="160" y="90" width="160" height="228" as="geometry" />
        </mxCell>
        <mxCell id="1Ee29xCgFdi1v9QcK5ku-2" value="- Name : String&lt;div&gt;- ID : int&lt;/div&gt;&lt;div&gt;- UserID : String&lt;/div&gt;&lt;div&gt;- UserPassword : String&lt;/div&gt;" style="text;strokeColor=none;fillColor=none;align=left;verticalAlign=top;spacingLeft=4;spacingRight=4;overflow=hidden;rotatable=0;points=[[0,0.5],[1,0.5]];portConstraint=eastwest;whiteSpace=wrap;html=1;" vertex="1" parent="1Ee29xCgFdi1v9QcK5ku-1">
          <mxGeometry y="26" width="160" height="62" as="geometry" />
        </mxCell>
        <mxCell id="1Ee29xCgFdi1v9QcK5ku-3" value="" style="line;strokeWidth=1;fillColor=none;align=left;verticalAlign=middle;spacingTop=-1;spacingLeft=3;spacingRight=3;rotatable=0;labelPosition=right;points=[];portConstraint=eastwest;strokeColor=inherit;" vertex="1" parent="1Ee29xCgFdi1v9QcK5ku-1">
          <mxGeometry y="88" width="160" height="20" as="geometry" />
        </mxCell>
        <mxCell id="1Ee29xCgFdi1v9QcK5ku-4" value="+ method(type): type" style="text;strokeColor=none;fillColor=none;align=left;verticalAlign=top;spacingLeft=4;spacingRight=4;overflow=hidden;rotatable=0;points=[[0,0.5],[1,0.5]];portConstraint=eastwest;whiteSpace=wrap;html=1;" vertex="1" parent="1Ee29xCgFdi1v9QcK5ku-1">
          <mxGeometry y="108" width="160" height="120" as="geometry" />
        </mxCell>
        <mxCell id="1Ee29xCgFdi1v9QcK5ku-5" value="Ønske" style="swimlane;fontStyle=1;align=center;verticalAlign=top;childLayout=stackLayout;horizontal=1;startSize=26;horizontalStack=0;resizeParent=1;resizeParentMax=0;resizeLast=0;collapsible=1;marginBottom=0;whiteSpace=wrap;html=1;" vertex="1" parent="1">
          <mxGeometry x="560" y="430" width="160" height="228" as="geometry" />
        </mxCell>
        <mxCell id="1Ee29xCgFdi1v9QcK5ku-6" value="- Name : String&lt;div&gt;- ID : int&lt;/div&gt;&lt;div&gt;- UserID : String&lt;/div&gt;&lt;div&gt;- UserPassword : String&lt;/div&gt;" style="text;strokeColor=none;fillColor=none;align=left;verticalAlign=top;spacingLeft=4;spacingRight=4;overflow=hidden;rotatable=0;points=[[0,0.5],[1,0.5]];portConstraint=eastwest;whiteSpace=wrap;html=1;" vertex="1" parent="1Ee29xCgFdi1v9QcK5ku-5">
          <mxGeometry y="26" width="160" height="62" as="geometry" />
        </mxCell>
        <mxCell id="1Ee29xCgFdi1v9QcK5ku-7" value="" style="line;strokeWidth=1;fillColor=none;align=left;verticalAlign=middle;spacingTop=-1;spacingLeft=3;spacingRight=3;rotatable=0;labelPosition=right;points=[];portConstraint=eastwest;strokeColor=inherit;" vertex="1" parent="1Ee29xCgFdi1v9QcK5ku-5">
          <mxGeometry y="88" width="160" height="20" as="geometry" />
        </mxCell>
        <mxCell id="1Ee29xCgFdi1v9QcK5ku-8" value="+ method(type): type" style="text;strokeColor=none;fillColor=none;align=left;verticalAlign=top;spacingLeft=4;spacingRight=4;overflow=hidden;rotatable=0;points=[[0,0.5],[1,0.5]];portConstraint=eastwest;whiteSpace=wrap;html=1;" vertex="1" parent="1Ee29xCgFdi1v9QcK5ku-5">
          <mxGeometry y="108" width="160" height="120" as="geometry" />
        </mxCell>
        <mxCell id="1Ee29xCgFdi1v9QcK5ku-15" style="edgeStyle=orthogonalEdgeStyle;rounded=0;orthogonalLoop=1;jettySize=auto;html=1;entryX=0.5;entryY=0;entryDx=0;entryDy=0;" edge="1" parent="1" source="1Ee29xCgFdi1v9QcK5ku-9" target="1Ee29xCgFdi1v9QcK5ku-5">
          <mxGeometry relative="1" as="geometry" />
        </mxCell>
        <mxCell id="1Ee29xCgFdi1v9QcK5ku-16" value="&lt;font style=&quot;font-size: 20px;&quot;&gt;Containing&lt;/font&gt;" style="edgeLabel;html=1;align=center;verticalAlign=middle;resizable=0;points=[];" vertex="1" connectable="0" parent="1Ee29xCgFdi1v9QcK5ku-15">
          <mxGeometry x="-0.032" y="-1" relative="1" as="geometry">
            <mxPoint y="1" as="offset" />
          </mxGeometry>
        </mxCell>
        <mxCell id="1Ee29xCgFdi1v9QcK5ku-38" value="1" style="edgeLabel;html=1;align=center;verticalAlign=middle;resizable=0;points=[];" vertex="1" connectable="0" parent="1Ee29xCgFdi1v9QcK5ku-15">
          <mxGeometry x="-0.875" relative="1" as="geometry">
            <mxPoint x="10" y="5" as="offset" />
          </mxGeometry>
        </mxCell>
        <mxCell id="1Ee29xCgFdi1v9QcK5ku-40" value="1..*" style="edgeLabel;html=1;align=center;verticalAlign=middle;resizable=0;points=[];" vertex="1" connectable="0" parent="1Ee29xCgFdi1v9QcK5ku-15">
          <mxGeometry x="0.6518" relative="1" as="geometry">
            <mxPoint x="10" as="offset" />
          </mxGeometry>
        </mxCell>
        <mxCell id="1Ee29xCgFdi1v9QcK5ku-9" value="Ønske Liste" style="swimlane;fontStyle=1;align=center;verticalAlign=top;childLayout=stackLayout;horizontal=1;startSize=26;horizontalStack=0;resizeParent=1;resizeParentMax=0;resizeLast=0;collapsible=1;marginBottom=0;whiteSpace=wrap;html=1;" vertex="1" parent="1">
          <mxGeometry x="560" y="90" width="160" height="228" as="geometry" />
        </mxCell>
        <mxCell id="1Ee29xCgFdi1v9QcK5ku-10" value="- Name : String&lt;div&gt;- ID : int&lt;/div&gt;&lt;div&gt;- UserID : String&lt;/div&gt;&lt;div&gt;- UserPassword : String&lt;/div&gt;" style="text;strokeColor=none;fillColor=none;align=left;verticalAlign=top;spacingLeft=4;spacingRight=4;overflow=hidden;rotatable=0;points=[[0,0.5],[1,0.5]];portConstraint=eastwest;whiteSpace=wrap;html=1;" vertex="1" parent="1Ee29xCgFdi1v9QcK5ku-9">
          <mxGeometry y="26" width="160" height="62" as="geometry" />
        </mxCell>
        <mxCell id="1Ee29xCgFdi1v9QcK5ku-11" value="" style="line;strokeWidth=1;fillColor=none;align=left;verticalAlign=middle;spacingTop=-1;spacingLeft=3;spacingRight=3;rotatable=0;labelPosition=right;points=[];portConstraint=eastwest;strokeColor=inherit;" vertex="1" parent="1Ee29xCgFdi1v9QcK5ku-9">
          <mxGeometry y="88" width="160" height="20" as="geometry" />
        </mxCell>
        <mxCell id="1Ee29xCgFdi1v9QcK5ku-12" value="+ method(type): type" style="text;strokeColor=none;fillColor=none;align=left;verticalAlign=top;spacingLeft=4;spacingRight=4;overflow=hidden;rotatable=0;points=[[0,0.5],[1,0.5]];portConstraint=eastwest;whiteSpace=wrap;html=1;" vertex="1" parent="1Ee29xCgFdi1v9QcK5ku-9">
          <mxGeometry y="108" width="160" height="120" as="geometry" />
        </mxCell>
        <mxCell id="1Ee29xCgFdi1v9QcK5ku-17" value="Website" style="swimlane;fontStyle=1;align=center;verticalAlign=top;childLayout=stackLayout;horizontal=1;startSize=26;horizontalStack=0;resizeParent=1;resizeParentMax=0;resizeLast=0;collapsible=1;marginBottom=0;whiteSpace=wrap;html=1;" vertex="1" parent="1">
          <mxGeometry x="-260" y="80" width="160" height="228" as="geometry" />
        </mxCell>
        <mxCell id="1Ee29xCgFdi1v9QcK5ku-18" value="- Name : String&lt;div&gt;- ID : int&lt;/div&gt;&lt;div&gt;- UserID : String&lt;/div&gt;&lt;div&gt;- UserPassword : String&lt;/div&gt;" style="text;strokeColor=none;fillColor=none;align=left;verticalAlign=top;spacingLeft=4;spacingRight=4;overflow=hidden;rotatable=0;points=[[0,0.5],[1,0.5]];portConstraint=eastwest;whiteSpace=wrap;html=1;" vertex="1" parent="1Ee29xCgFdi1v9QcK5ku-17">
          <mxGeometry y="26" width="160" height="62" as="geometry" />
        </mxCell>
        <mxCell id="1Ee29xCgFdi1v9QcK5ku-19" value="" style="line;strokeWidth=1;fillColor=none;align=left;verticalAlign=middle;spacingTop=-1;spacingLeft=3;spacingRight=3;rotatable=0;labelPosition=right;points=[];portConstraint=eastwest;strokeColor=inherit;" vertex="1" parent="1Ee29xCgFdi1v9QcK5ku-17">
          <mxGeometry y="88" width="160" height="20" as="geometry" />
        </mxCell>
        <mxCell id="1Ee29xCgFdi1v9QcK5ku-20" value="+ method(type): type" style="text;strokeColor=none;fillColor=none;align=left;verticalAlign=top;spacingLeft=4;spacingRight=4;overflow=hidden;rotatable=0;points=[[0,0.5],[1,0.5]];portConstraint=eastwest;whiteSpace=wrap;html=1;" vertex="1" parent="1Ee29xCgFdi1v9QcK5ku-17">
          <mxGeometry y="108" width="160" height="120" as="geometry" />
        </mxCell>
        <mxCell id="1Ee29xCgFdi1v9QcK5ku-23" style="edgeStyle=orthogonalEdgeStyle;rounded=0;orthogonalLoop=1;jettySize=auto;html=1;entryX=1.021;entryY=0.039;entryDx=0;entryDy=0;entryPerimeter=0;" edge="1" parent="1" source="1Ee29xCgFdi1v9QcK5ku-3" target="1Ee29xCgFdi1v9QcK5ku-20">
          <mxGeometry relative="1" as="geometry" />
        </mxCell>
        <mxCell id="1Ee29xCgFdi1v9QcK5ku-24" value="&lt;font style=&quot;font-size: 20px;&quot;&gt;Registered at&lt;/font&gt;" style="edgeLabel;html=1;align=center;verticalAlign=middle;resizable=0;points=[];" vertex="1" connectable="0" parent="1Ee29xCgFdi1v9QcK5ku-23">
          <mxGeometry x="0.0297" y="1" relative="1" as="geometry">
            <mxPoint as="offset" />
          </mxGeometry>
        </mxCell>
        <mxCell id="1Ee29xCgFdi1v9QcK5ku-43" value="1..*" style="edgeLabel;html=1;align=center;verticalAlign=middle;resizable=0;points=[];" vertex="1" connectable="0" parent="1Ee29xCgFdi1v9QcK5ku-23">
          <mxGeometry x="-0.9201" y="-1" relative="1" as="geometry">
            <mxPoint x="-10" y="-7" as="offset" />
          </mxGeometry>
        </mxCell>
        <mxCell id="1Ee29xCgFdi1v9QcK5ku-44" value="1" style="edgeLabel;html=1;align=center;verticalAlign=middle;resizable=0;points=[];" vertex="1" connectable="0" parent="1Ee29xCgFdi1v9QcK5ku-23">
          <mxGeometry x="0.7741" relative="1" as="geometry">
            <mxPoint x="-13" y="-13" as="offset" />
          </mxGeometry>
        </mxCell>
        <mxCell id="1Ee29xCgFdi1v9QcK5ku-25" value="Person" style="swimlane;fontStyle=1;align=center;verticalAlign=top;childLayout=stackLayout;horizontal=1;startSize=26;horizontalStack=0;resizeParent=1;resizeParentMax=0;resizeLast=0;collapsible=1;marginBottom=0;whiteSpace=wrap;html=1;" vertex="1" parent="1">
          <mxGeometry x="-20" y="430" width="160" height="228" as="geometry" />
        </mxCell>
        <mxCell id="1Ee29xCgFdi1v9QcK5ku-26" value="- Name : String&lt;div&gt;- ID : int&lt;/div&gt;&lt;div&gt;- UserID : String&lt;/div&gt;&lt;div&gt;- UserPassword : String&lt;/div&gt;" style="text;strokeColor=none;fillColor=none;align=left;verticalAlign=top;spacingLeft=4;spacingRight=4;overflow=hidden;rotatable=0;points=[[0,0.5],[1,0.5]];portConstraint=eastwest;whiteSpace=wrap;html=1;" vertex="1" parent="1Ee29xCgFdi1v9QcK5ku-25">
          <mxGeometry y="26" width="160" height="62" as="geometry" />
        </mxCell>
        <mxCell id="1Ee29xCgFdi1v9QcK5ku-27" value="" style="line;strokeWidth=1;fillColor=none;align=left;verticalAlign=middle;spacingTop=-1;spacingLeft=3;spacingRight=3;rotatable=0;labelPosition=right;points=[];portConstraint=eastwest;strokeColor=inherit;" vertex="1" parent="1Ee29xCgFdi1v9QcK5ku-25">
          <mxGeometry y="88" width="160" height="20" as="geometry" />
        </mxCell>
        <mxCell id="1Ee29xCgFdi1v9QcK5ku-28" value="+ method(type): type" style="text;strokeColor=none;fillColor=none;align=left;verticalAlign=top;spacingLeft=4;spacingRight=4;overflow=hidden;rotatable=0;points=[[0,0.5],[1,0.5]];portConstraint=eastwest;whiteSpace=wrap;html=1;" vertex="1" parent="1Ee29xCgFdi1v9QcK5ku-25">
          <mxGeometry y="108" width="160" height="120" as="geometry" />
        </mxCell>
        <mxCell id="1Ee29xCgFdi1v9QcK5ku-29" style="edgeStyle=orthogonalEdgeStyle;rounded=0;orthogonalLoop=1;jettySize=auto;html=1;" edge="1" parent="1" source="1Ee29xCgFdi1v9QcK5ku-4">
          <mxGeometry relative="1" as="geometry">
            <mxPoint x="60" y="420" as="targetPoint" />
          </mxGeometry>
        </mxCell>
        <mxCell id="1Ee29xCgFdi1v9QcK5ku-30" value="&lt;font style=&quot;font-size: 25px;&quot;&gt;Is a&lt;/font&gt;" style="edgeLabel;html=1;align=center;verticalAlign=middle;resizable=0;points=[];" vertex="1" connectable="0" parent="1Ee29xCgFdi1v9QcK5ku-29">
          <mxGeometry x="0.2748" relative="1" as="geometry">
            <mxPoint x="-1" as="offset" />
          </mxGeometry>
        </mxCell>
        <mxCell id="1Ee29xCgFdi1v9QcK5ku-41" value="1" style="edgeLabel;html=1;align=center;verticalAlign=middle;resizable=0;points=[];" vertex="1" connectable="0" parent="1Ee29xCgFdi1v9QcK5ku-29">
          <mxGeometry x="0.8648" y="1" relative="1" as="geometry">
            <mxPoint x="9" as="offset" />
          </mxGeometry>
        </mxCell>
        <mxCell id="1Ee29xCgFdi1v9QcK5ku-42" value="1" style="edgeLabel;html=1;align=center;verticalAlign=middle;resizable=0;points=[];" vertex="1" connectable="0" parent="1Ee29xCgFdi1v9QcK5ku-29">
          <mxGeometry x="-0.8408" relative="1" as="geometry">
            <mxPoint as="offset" />
          </mxGeometry>
        </mxCell>
      </root>
    </mxGraphModel>
  </diagram>
</mxfile>
